<svg width="35" height="33" viewBox="0 0 35 33" fill="none" xmlns="http://www.w3.org/2000/svg">
<path d="M34.3721 27.6217C34.3364 27.6059 30.8087 26.0152 26.2647 23.0683C26.1163 22.8038 25.9532 22.5441 25.7703 22.2924C25.6351 22.1063 25.4904 21.9251 25.3368 21.7492C25.5644 21.6972 25.7879 21.6356 26.0065 21.5644C30.3448 20.155 32.472 15.1621 32.5604 14.9502C32.7624 14.4664 32.5809 13.9079 32.1331 13.6352C31.9624 13.5312 28.4086 11.4036 24.6278 11.7872C26.5253 9.34336 28.0426 6.83842 29.1566 4.30546C29.1667 4.28268 29.176 4.25948 29.1842 4.23599C29.8408 2.40267 29.7603 1.33094 28.9312 0.863057C27.8747 0.266569 26.8 1.22723 25.1857 3.20798C24.8155 3.66228 24.8836 4.33064 25.338 4.7009C25.7083 5.00268 26.2209 5.01287 26.5979 4.76075C25.4941 6.96504 24.059 9.14825 22.3127 11.2859C22.0852 6.91764 18.2278 3.55461 18.0589 3.40959C17.6612 3.06806 17.0738 3.06806 16.6762 3.40959C16.5111 3.5515 12.8261 6.76654 12.4455 10.9889C10.8077 8.94636 9.45411 6.86317 8.4012 4.76061C8.77853 5.01358 9.29112 5.00297 9.66152 4.70104C10.1158 4.33078 10.184 3.66242 9.8139 3.20812C8.20001 1.22709 7.12517 0.267559 6.06844 0.863057C5.23936 1.33108 5.15871 2.40281 5.81505 4.23613C5.8234 4.25962 5.83273 4.28282 5.84278 4.3056C6.96247 6.85101 8.48892 9.36797 10.3998 11.8235C6.51185 11.2943 2.77743 13.529 2.60227 13.6355C2.15448 13.9083 1.97296 14.467 2.175 14.9507C2.26342 15.1625 4.39117 20.1553 8.72944 21.5646C8.94817 21.6358 9.17157 21.6973 9.39936 21.7494C9.24571 21.9252 9.10126 22.1063 8.966 22.2925C8.72322 22.6264 8.51354 22.9737 8.33088 23.329C3.99403 26.1022 0.66128 27.6067 0.627466 27.6219C0.0928049 27.8614 -0.146583 28.489 0.0928049 29.0238C0.269233 29.4178 0.656328 29.6517 1.06196 29.6517C1.20684 29.6517 1.35412 29.6219 1.49503 29.5589C1.61501 29.5051 3.98385 28.4372 7.37333 26.4153C6.98482 29.0331 7.51637 31.3498 7.55103 31.4959C7.66535 31.9775 8.09546 32.3123 8.58286 32.3123C8.61159 32.3123 8.64059 32.3111 8.66973 32.3089C8.89851 32.2902 14.304 31.8096 16.9855 28.1187C17.1206 27.9328 17.2481 27.7394 17.3679 27.539C17.4878 27.7394 17.6152 27.9327 17.7503 28.1187C20.4321 31.8099 25.8376 32.2902 26.0664 32.3089C26.5909 32.3496 27.0643 32.006 27.1851 31.4961C27.2204 31.3465 27.7738 28.9292 27.3343 26.2403C30.8761 28.3741 33.3783 29.5024 33.5049 29.559C33.6457 29.622 33.793 29.6518 33.938 29.6518C34.3434 29.6518 34.7306 29.4181 34.9072 29.024C35.1466 28.489 34.907 27.8611 34.3721 27.6217ZM30.167 15.0029C29.44 16.319 27.8118 18.7467 25.351 19.5461C24.5623 19.8023 23.6738 19.891 22.7121 19.8099C22.2199 19.7705 21.7659 20.071 21.6138 20.5394C21.5781 20.6491 21.562 20.7612 21.5626 20.8719L21.3433 19.5937L23.779 17.2197C24.0682 16.9377 24.1722 16.5159 24.0474 16.1318C23.9226 15.7475 23.5906 15.4677 23.1908 15.4097L21.683 15.1905C22.3011 14.7168 22.9436 14.3681 23.5991 14.1552C26.0485 13.3595 28.8024 14.3674 30.167 15.0029ZM19.1572 19.4027L19.463 21.186L17.8617 20.344C17.707 20.2628 17.5376 20.2222 17.3679 20.2222C17.1983 20.2222 17.0286 20.2628 16.8741 20.344L15.2731 21.186L15.5789 19.4027C15.6379 19.0585 15.5237 18.7074 15.2737 18.4634L13.9781 17.2007L15.7685 16.9405C16.1141 16.8904 16.4129 16.6731 16.5674 16.36L17.3679 14.7376L18.1686 16.36C18.3232 16.6733 18.6219 16.8903 18.9675 16.9405L20.7578 17.2007L19.4623 18.4634C19.2123 18.7074 19.0981 19.0585 19.1572 19.4027ZM17.3695 5.7026C18.3965 6.80064 20.2019 9.09944 20.2019 11.6873C20.2019 12.5168 20.0118 13.3889 19.637 14.2795C19.6152 14.3312 19.5991 14.3839 19.5861 14.4367L18.3195 11.8702C18.1407 11.508 17.7718 11.2787 17.3679 11.2787C16.964 11.2787 16.5951 11.508 16.4163 11.8702L15.1496 14.4373C15.1339 14.3729 15.1137 14.3094 15.0858 14.2484C14.7195 13.3685 14.5339 12.507 14.5339 11.6873C14.5339 9.11147 16.3433 6.80403 17.3695 5.7026ZM9.38507 19.5462C6.93573 18.7505 5.30034 16.3166 4.56972 15C5.93149 14.3627 8.67568 13.3558 11.1369 14.1554C11.7925 14.3685 12.4351 14.717 13.0533 15.1905L11.5452 15.4097C11.1455 15.4677 10.8133 15.7477 10.6885 16.1318C10.5638 16.5159 10.6679 16.9376 10.9569 17.2197L13.3927 19.5937L13.1745 20.8662C13.1741 20.3327 12.777 19.8804 12.2454 19.8139C12.1646 19.8041 12.0837 19.8034 12.0038 19.8113C11.0492 19.8903 10.168 19.8007 9.38507 19.5462ZM25.2766 30.0483C23.8004 29.7635 20.9884 28.9651 19.4672 26.8712C18.9865 26.2093 18.6308 25.4057 18.4101 24.4821C18.3349 24.0954 18.0462 23.7672 17.6414 23.6592C17.0872 23.5122 16.5161 23.8313 16.3514 24.3804C16.3439 24.4054 16.3372 24.4304 16.3317 24.4559C16.1111 25.3908 15.7535 26.2034 15.2683 26.8712C13.7552 28.9539 10.9374 29.7574 9.45878 30.0459C9.27599 28.5497 9.16959 25.6219 10.6826 23.5397C11.1635 22.8775 11.8187 22.2905 12.6304 21.7946C12.8563 21.6686 13.0285 21.4617 13.1144 21.2151L12.8174 22.9464C12.7491 23.3446 12.9129 23.7468 13.2396 23.9844C13.5664 24.2215 13.9996 24.2527 14.357 24.065L17.3673 22.4821L20.3779 24.065C20.5333 24.1466 20.7028 24.1868 20.8716 24.1868C20.8727 24.1868 20.8737 24.1868 20.8747 24.1868C21.4607 24.1867 21.9355 23.7117 21.9355 23.1257C21.9355 23.0367 21.9246 22.9504 21.904 22.8678L21.6206 21.2158C21.6998 21.4431 21.8552 21.6435 22.0729 21.7753C22.899 22.2751 23.5651 22.8688 24.0527 23.5397C25.5672 25.6234 25.4596 28.5539 25.2766 30.0483Z" fill="black"/>
</svg>
