<svg width="23" height="35" viewBox="0 0 23 35" fill="none" xmlns="http://www.w3.org/2000/svg">
<path d="M1.03917 29.8967L5.93554 7.80409C5.93645 7.80009 5.93736 7.79616 5.93834 7.79215C6.04228 7.36671 6.09504 6.92887 6.09504 6.4908V6.00972C6.09504 5.65541 5.8068 5.36717 5.4525 5.36717C5.13939 5.36717 4.88554 5.11333 4.88554 4.80022C4.88554 4.48711 5.13939 4.23326 5.4525 4.23326H5.91037L5.56808 3.0354C5.36095 2.31038 5.50254 1.5493 5.95663 0.947268C6.41072 0.345238 7.10362 0 7.85767 0H15.1423C15.8963 0 16.5892 0.345238 17.0433 0.947268C17.4974 1.5493 17.639 2.31038 17.4319 3.0354L17.0897 4.23326H17.5475C17.8606 4.23326 18.1145 4.48711 18.1145 4.80022C18.1145 5.11333 17.8606 5.36717 17.5475 5.36717C17.1932 5.36717 16.905 5.65541 16.905 6.00972V6.4908C16.905 6.92887 16.9577 7.36671 17.0618 7.79215C17.0627 7.79616 17.0636 7.80009 17.0646 7.80409L21.9608 29.8967C22.2376 31.1453 21.9372 32.4334 21.1366 33.4307C20.3362 34.428 19.1437 35 17.8648 35H5.13515C3.85633 35 2.66376 34.428 1.86329 33.4307C1.06283 32.4334 0.762423 31.1453 1.03917 29.8967ZM16.3416 2.72388C16.4502 2.34409 16.376 1.94549 16.1382 1.63011C15.9003 1.31473 15.5373 1.13391 15.1424 1.13391H13.8812V1.17171C13.8812 1.48482 13.6274 1.73866 13.3143 1.73866C13.0012 1.73866 12.7473 1.48482 12.7473 1.17171V1.13391H10.2527V1.17171C10.2527 1.48482 9.99887 1.73866 9.68576 1.73866C9.37265 1.73866 9.1188 1.48482 9.1188 1.17171V1.13391H7.85767C7.46269 1.13391 7.09976 1.31481 6.86187 1.63011C6.62398 1.94541 6.54982 2.34409 6.65837 2.72388L7.08963 4.23326H15.9104L16.3416 2.72388ZM2.74759 32.7209C3.33178 33.4487 4.20202 33.8661 5.13523 33.8661H17.8648C18.798 33.8661 19.6682 33.4487 20.2523 32.7209C20.8365 31.9931 21.0557 31.0532 20.8538 30.1421L15.9587 8.05537C15.8342 7.54375 15.7711 7.01739 15.7711 6.4908V6.00972C15.7711 5.78324 15.8136 5.56651 15.8913 5.36717H7.10876C7.18639 5.56651 7.22895 5.78324 7.22895 6.00972V6.4908C7.22895 7.01739 7.16583 7.54375 7.04125 8.05529L2.14617 30.142C1.94426 31.0532 2.16348 31.9932 2.74759 32.7209Z" fill="black"/>
</svg>
