
<svg class="elem" width="35" height="35" viewBox="0 0 35 35" fill="none" xmlns="http://www.w3.org/2000/svg">
<path d="M31.3821 5.04796H29.6642L20.5217 1.39096C18.4878 0.577362 16.2476 0.577362 14.2137 1.39096L5.0713 5.04796H3.61776C2.60887 5.04796 1.63853 5.47372 0.955401 6.21611C0.272351 6.95849 -0.0713833 7.9609 0.0123985 8.96628L0.185751 11.0466C0.240361 11.7023 0.566806 12.3135 1.08138 12.7237C1.54667 13.0944 2.13802 13.2778 2.7286 13.2409L1.78515 29.7509C1.71812 30.924 2.12553 32.0405 2.93235 32.8947C3.73909 33.7489 4.83054 34.2193 6.00546 34.2193H28.73C29.905 34.2193 30.9964 33.7489 31.8031 32.8947C32.6099 32.0406 33.0173 30.924 32.9503 29.751L31.9879 12.9097L32.0189 12.9174C32.7405 13.0979 33.4909 12.9388 34.0772 12.4809C34.6636 12.0231 34.9999 11.3338 34.9999 10.5898V8.66581C35 6.67089 33.377 5.04796 31.3821 5.04796ZM14.638 2.45171C16.3982 1.74764 18.3372 1.74764 20.0974 2.45171L26.588 5.04796H8.14746L14.638 2.45171ZM31.8097 29.8161C31.8585 30.6721 31.5613 31.4868 30.9725 32.1102C30.3838 32.7335 29.5874 33.0768 28.73 33.0768H6.00546C5.14807 33.0768 4.35169 32.7335 3.76293 32.1102C3.17425 31.4868 2.8769 30.6721 2.9258 29.8161L3.8819 13.0844L8.91467 12.3654C9.27349 12.314 9.63824 12.3084 9.9985 12.3485L19.4273 13.3961C19.629 13.4185 19.8306 13.4297 20.0318 13.4297C20.5137 13.4297 20.9925 13.3655 21.4616 13.2376L26.0382 11.9894C26.7481 11.7957 27.5005 11.7878 28.2142 11.9662L30.827 12.6194L31.8097 29.8161ZM33.8575 10.5898C33.8575 10.9795 33.6813 11.3406 33.3742 11.5804C33.0671 11.8201 32.6741 11.9037 32.296 11.809L28.4913 10.8578C27.5881 10.6319 26.6358 10.6421 25.7376 10.8871L21.1611 12.1353C20.6357 12.2786 20.0949 12.3207 19.5536 12.2607L10.1246 11.213C9.92485 11.1908 9.72408 11.1797 9.52331 11.1797C9.26579 11.1797 9.00828 11.198 8.75313 11.2344L2.75435 12.0913C2.40841 12.1409 2.06688 12.048 1.79337 11.8301C1.51986 11.6121 1.35329 11.3001 1.32427 10.9516L1.2791 10.4096L7.1436 9.57187C8.68435 9.35175 10.2521 9.30065 11.8035 9.42007L17.3239 9.8447C17.6389 9.86922 17.9131 9.63349 17.9373 9.31893C17.9614 9.00436 17.7261 8.72979 17.4115 8.70557L11.8911 8.28095C10.2567 8.15512 8.60498 8.20897 6.98198 8.44089L1.18405 9.26919L1.15092 8.87146C1.09273 8.17348 1.32191 7.5052 1.79619 6.98979C2.27047 6.47431 2.91734 6.19052 3.61776 6.19052H31.3821C32.747 6.19052 33.8575 7.301 33.8575 8.66589V10.5898Z" fill="black"/>
</svg>

