
<svg class="elem" width="35" height="29" viewBox="0 0 35 29" fill="none" xmlns="http://www.w3.org/2000/svg">
<path d="M25.8269 0.480698C22.4171 0.480698 19.24 4.57378 17.6306 10.9576C15.1178 10.3206 12.3988 9.97008 9.77027 9.97008C6.7615 9.97008 4.22847 10.9842 2.4451 12.9017C0.868595 14.5977 0 16.8714 0 19.3026C0 23.6342 2.86959 28.2953 9.17117 28.2953C9.26163 28.2953 9.35147 28.3004 9.44067 28.3055C9.55138 28.3112 9.66145 28.3168 9.77027 28.3168C13.3193 28.3168 17.0341 27.6804 20.1807 26.5569C21.8319 27.8417 23.9056 28.5193 25.9996 28.5193C27.361 28.5193 28.7288 28.2359 29.989 27.6545C33.1603 26.1906 34.9791 23.1635 34.9791 19.3513C34.9791 19.2608 34.9842 19.171 34.9892 19.0818C34.9949 18.9711 35.0006 18.861 35.0006 18.7522C35 10.1099 31.2327 0.480698 25.8269 0.480698ZM9.50709 27.0421C9.39575 27.0358 9.28314 27.0301 9.17117 27.0301C3.73945 27.0301 1.26525 23.0243 1.26525 19.3026C1.26525 17.1915 2.01365 15.224 3.37189 13.7633C4.90981 12.1096 7.1221 11.2353 9.77027 11.2353C12.4766 11.2353 15.1362 11.6041 17.5199 12.2336L17.9178 12.3443C18.5593 12.5227 19.1717 12.7195 19.7563 12.9295C19.8613 12.9675 19.9644 13.0067 20.0675 13.0459C20.2016 13.0965 20.3338 13.1478 20.4648 13.1996C20.6242 13.2635 20.7836 13.3268 20.9393 13.3932C20.9494 13.3976 20.9595 13.4021 20.9703 13.4065C22.9675 14.2612 24.5794 15.3132 25.5941 16.4614C25.6302 16.5026 25.6681 16.5437 25.7029 16.5854C25.7706 16.6658 25.8339 16.7468 25.8959 16.8284C25.9484 16.898 25.9984 16.9682 26.0465 17.0384C26.092 17.1042 26.1388 17.1706 26.1799 17.237C26.2641 17.3731 26.3419 17.5097 26.4089 17.647C26.426 17.6818 26.438 17.7166 26.4539 17.7514C26.5057 17.8659 26.5526 17.9804 26.5918 18.0955C26.6082 18.1436 26.6221 18.1923 26.6367 18.2404C26.6683 18.3473 26.6943 18.4542 26.7145 18.5618C26.7234 18.6067 26.7328 18.651 26.7398 18.6959C26.762 18.8452 26.7765 18.9945 26.7765 19.1438C26.7765 19.2773 26.7664 19.4107 26.7487 19.5449C26.7423 19.5936 26.7303 19.6417 26.7215 19.6904C26.7063 19.7739 26.6911 19.8574 26.6696 19.9415C26.6531 20.0054 26.631 20.0687 26.6108 20.1319C26.5892 20.1977 26.5684 20.2635 26.5431 20.33C26.5133 20.4059 26.4798 20.4818 26.445 20.5571C26.4222 20.607 26.3988 20.6564 26.3741 20.7064C26.3286 20.7956 26.2799 20.8841 26.2274 20.9727C26.209 21.0031 26.1907 21.0334 26.1717 21.0638C26.1053 21.1694 26.0363 21.2745 25.9598 21.3788C25.9566 21.3826 25.9535 21.3864 25.9509 21.3909C24.9862 22.7023 23.2332 23.9087 21 24.8684C20.9785 24.8779 20.9576 24.8874 20.9361 24.8962C20.8191 24.9462 20.6976 24.9937 20.578 25.0424C20.442 25.0974 20.306 25.1525 20.1656 25.2056C17.2017 26.3399 13.5312 27.0522 9.7709 27.0522C9.6836 27.051 9.59566 27.0465 9.50709 27.0421ZM33.7259 19.0147C33.7196 19.1261 33.7139 19.2387 33.7139 19.3507C33.7139 22.6492 32.1633 25.2568 29.4582 26.5056C26.922 27.6754 23.8867 27.4558 21.582 26.0071C25.3702 24.38 28.0405 21.9893 28.0405 19.1431C28.0405 18.9502 28.0247 18.7604 28.0006 18.5719C27.9981 18.551 27.993 18.5301 27.9899 18.5093C27.5369 15.312 23.7013 12.7492 18.8434 11.2935C20.2832 5.55752 23.0529 1.74595 25.8257 1.74595C29.8903 1.74595 33.7335 10.0099 33.7335 18.7516C33.7347 18.8389 33.7297 18.9268 33.7259 19.0147Z" fill="black"/>
</svg>

