
<svg class="elem" width="28" height="34" viewBox="0 0 28 34" fill="none" xmlns="http://www.w3.org/2000/svg">
<path d="M0.436747 10.072C0.437471 10.0646 0.438772 10.0573 0.439785 10.05C0.441088 10.0405 0.442316 10.0309 0.444126 10.0215C0.445789 10.0126 0.448032 10.0039 0.450203 9.9952C0.452084 9.98754 0.453892 9.97987 0.456062 9.97235C0.458738 9.96323 0.461777 9.95426 0.464888 9.94529C0.467348 9.93834 0.469809 9.9314 0.472485 9.92446C0.475958 9.91563 0.479792 9.90695 0.483698 9.89841C0.486809 9.89154 0.490063 9.88481 0.493462 9.87809C0.497585 9.86998 0.501925 9.86195 0.506483 9.85407C0.510462 9.84712 0.51466 9.84032 0.518927 9.83352C0.523558 9.82622 0.528259 9.81898 0.533251 9.81197C0.53817 9.80502 0.543304 9.79829 0.548584 9.79149C0.553648 9.78498 0.558714 9.77847 0.564068 9.77225C0.566021 9.76994 0.567757 9.76748 0.56971 9.76523L6.36881 3.19325V0.542553C6.36881 0.242847 6.61165 0 6.91136 0H21.0886C21.3883 0 21.6312 0.242847 21.6312 0.542553V3.19325L27.4301 9.76523C27.4321 9.76741 27.4338 9.76979 27.4356 9.77203C27.4412 9.77847 27.4464 9.7852 27.4516 9.79193C27.4567 9.79844 27.4617 9.80502 27.4664 9.81168C27.4715 9.81898 27.4764 9.82644 27.4812 9.83396C27.4853 9.84047 27.4894 9.84705 27.4932 9.85378C27.4979 9.86188 27.5023 9.87006 27.5066 9.87845C27.5099 9.88496 27.513 9.89154 27.5161 9.89812C27.5201 9.90688 27.524 9.9157 27.5275 9.92467C27.5302 9.9314 27.5326 9.9382 27.535 9.945C27.5381 9.95404 27.5413 9.96316 27.5439 9.97242C27.5461 9.97987 27.5479 9.98739 27.5497 9.99499C27.5519 10.0038 27.5541 10.0126 27.5558 10.0215C27.5576 10.0309 27.5588 10.0403 27.5601 10.0498C27.5612 10.0573 27.5625 10.0646 27.5632 10.0721C27.5648 10.0893 27.5658 10.1068 27.5658 10.1242V33.4574C27.5658 33.7572 27.3229 34 27.0232 34H0.976551C0.676846 34 0.433998 33.7572 0.433998 33.4574V10.1242C0.434143 10.1067 0.435083 10.0893 0.436747 10.072ZM2.179 9.58163H11.6437L6.91136 4.21839L2.179 9.58163ZM7.45391 1.08511V2.85586H16.7482C17.0478 2.85586 17.2908 3.0987 17.2908 3.39841C17.2908 3.69812 17.0478 3.94096 16.7482 3.94096H8.11366L13.0908 9.58171H25.821L20.8438 3.94096H18.9184C18.6188 3.94096 18.3759 3.69812 18.3759 3.39841C18.3759 3.0987 18.6188 2.85586 18.9184 2.85586H20.5461V1.08511H7.45391ZM26.4807 15.0072H13.3886V28.5745H26.4807V15.0072ZM13.3886 13.9221H26.4807V10.6667H13.3886V13.9221ZM26.4807 29.6596H13.3886V32.9149H26.4807V29.6596ZM12.3035 32.9149V10.6667H1.51925V13.9221H10.6758C10.9755 13.9221 11.2184 14.1649 11.2184 14.4646C11.2184 14.7643 10.9755 15.0072 10.6758 15.0072H1.51925V28.5745H10.6758C10.9755 28.5745 11.2184 28.8173 11.2184 29.117C11.2184 29.4167 10.9755 29.6596 10.6758 29.6596H1.51925V32.9149H12.3035Z" fill="black"/>
</svg>
