<svg width="35" height="35" viewBox="0 0 35 35" fill="none" xmlns="http://www.w3.org/2000/svg">
<path fill-rule="evenodd" clip-rule="evenodd" d="M25.4375 0.4309C22.8019 -0.13785 20.2011 -0.144796 18.1143 0.409517C15.8998 0.997025 14.5011 2.15432 14.1753 3.6678C14.0052 4.45825 14.1502 5.30952 14.5948 6.14263L14.1115 8.38678C12.3678 8.43961 10.3913 8.84977 8.37597 9.63968C5.8662 10.6239 3.69472 12.0557 2.26185 13.6718C0.742197 15.3861 0.216377 17.1239 0.781955 18.5648C1.07754 19.3178 1.66931 19.9475 2.50002 20.3951L7.62402 33.4624C7.86038 34.0648 8.31696 34.539 8.91005 34.7975C9.22062 34.9331 9.54934 35.001 9.87829 35.001C10.1777 35.001 10.4772 34.9449 10.7643 34.8322L23.807 29.7181C24.3932 29.4884 24.8557 29.0436 25.1094 28.4646C25.3606 27.8874 25.3726 27.2459 25.143 26.6585L24.5398 25.1209L27.1922 25.6924C27.8007 25.8237 28.4496 25.7052 28.9706 25.3676C29.4921 25.0312 29.8662 24.4897 29.9976 23.8824L32.9667 10.1005C33.7152 9.52379 34.1982 8.80706 34.3686 8.01721C35.022 4.98216 31.0988 1.65016 25.4375 0.4309ZM24.1069 28.0267C23.9708 28.3376 23.7224 28.5768 23.4076 28.7002L10.3648 33.8143C10.0343 33.9436 9.67294 33.9372 9.34744 33.7951C9.02248 33.653 8.77202 33.3935 8.64246 33.0629L3.44261 19.8028C3.39219 19.6746 3.2955 19.5704 3.17158 19.5101C2.48055 19.1758 2.0191 18.7234 1.79985 18.1653C1.39238 17.1266 1.84716 15.7882 3.08025 14.3976C4.40074 12.9081 6.42319 11.5799 8.77519 10.6576C10.7881 9.86876 12.8036 9.48584 14.5158 9.48584C14.9211 9.48584 15.3097 9.50722 15.6768 9.54993C17.3946 9.7566 18.6024 10.4253 18.9936 11.4223C19.0895 11.6664 19.1373 11.9276 19.1373 12.2047C19.1373 12.5593 19.0587 12.9401 18.9017 13.3433C18.8521 13.4715 18.8523 13.6131 18.9023 13.7412L23.1494 24.5714C23.1505 24.5735 23.1512 24.5762 23.1523 24.5783L24.1245 27.0574C24.2461 27.3682 24.2394 27.7223 24.1069 28.0267ZM33.2994 7.78648C33.1731 8.3718 32.7902 8.89303 32.1608 9.33632C32.0484 9.41535 31.9698 9.53391 31.941 9.66795L28.9284 23.6517C28.8579 23.9775 28.6571 24.268 28.3767 24.4491C28.0974 24.6307 27.7503 24.6931 27.4226 24.6232L24.0607 23.899L19.996 13.534C20.2908 12.6667 20.306 11.8288 20.039 11.0944C20.0302 11.0704 20.0211 11.0463 20.012 11.0229C20.0099 11.0181 20.0081 11.0133 20.0061 11.0079C19.3842 9.44526 17.5952 8.55391 15.2266 8.40385L15.7075 6.17096C15.7366 6.03637 15.7137 5.89593 15.6437 5.77737C15.2528 5.11565 15.1184 4.48335 15.2445 3.89749C15.4792 2.80691 16.5981 1.94334 18.3947 1.46646C20.3186 0.955353 22.7373 0.96815 25.2071 1.5001C30.1004 2.55376 33.8062 5.43289 33.2994 7.78648Z" fill="black"/>
</svg>
